<?xml version="1.0" standalone="no"?>
<!DOCTYPE svg PUBLIC "-//W3C//DTD SVG 20010904//EN"
 "http://www.w3.org/TR/2001/REC-SVG-20010904/DTD/svg10.dtd">
<svg version="1.0" xmlns="http://www.w3.org/2000/svg"
 width="500.000000pt" height="500.000000pt" viewBox="0 0 500.000000 500.000000"
 preserveAspectRatio="xMidYMid meet">
<metadata>
Created by potrace 1.14, written by Peter Selinger 2001-2017
</metadata>
<g transform="translate(0.000000,500.000000) scale(0.100000,-0.100000)"
fill="#000000" stroke="none">
<path d="M1855 4932 c-71 -38 -220 -115 -330 -171 -110 -57 -254 -132 -320
-166 -66 -34 -196 -102 -290 -150 -93 -48 -224 -116 -290 -150 -66 -34 -163
-84 -215 -110 -186 -95 -285 -182 -347 -307 -67 -135 -63 -20 -63 -1758 0
-1726 -3 -1633 60 -1764 82 -172 271 -305 469 -330 134 -17 2220 -29 2346 -14
33 4 404 9 825 12 811 4 817 4 935 53 170 71 290 206 344 388 20 69 21 80 21
1640 0 1727 3 1640 -62 1773 -50 103 -166 213 -293 278 -345 177 -492 253
-580 299 -55 29 -194 101 -310 161 -115 59 -282 145 -370 191 -302 157 -385
197 -392 190 -4 -4 -7 -369 -8 -810 0 -872 0 -882 55 -1004 16 -35 66 -116
113 -180 442 -619 837 -1357 922 -1723 25 -110 21 -144 -22 -186 -38 -36 -198
-145 -263 -179 -29 -16 -62 -19 -200 -21 -162 -2 -1635 -15 -2083 -18 l-227
-1 -93 55 c-122 74 -205 131 -244 169 -37 35 -41 69 -22 163 62 302 438 1037
798 1558 89 129 115 166 153 217 61 83 106 173 124 248 15 62 17 161 18 887 1
673 -1 819 -12 823 -17 6 4 15 -147 -63z"/>
<path d="M2308 3041 c-18 -9 -42 -32 -52 -52 -17 -32 -18 -39 -5 -79 17 -54
53 -81 106 -82 93 -1 148 88 104 169 -25 48 -99 69 -153 44z"/>
<path d="M2782 3020 c-41 -38 -78 -114 -96 -191 -18 -75 -18 -262 -1 -337 l13
-54 -62 7 c-33 4 -70 9 -81 11 -11 3 -65 5 -120 6 -152 2 -254 -31 -371 -118
-114 -84 -184 -258 -178 -439 3 -78 5 -107 19 -209 l7 -49 -34 7 c-180 32
-397 24 -508 -20 -89 -35 -133 -80 -105 -107 19 -19 31 -17 80 15 42 28 133
55 198 60 36 2 42 -3 170 -134 139 -143 176 -167 197 -129 15 28 10 34 -103
151 -53 55 -97 103 -97 106 0 14 190 -12 218 -29 5 -4 13 -26 17 -49 4 -24 9
-56 13 -73 12 -62 5 -230 -13 -295 -10 -36 -21 -69 -25 -73 -4 -5 -41 25 -82
65 -315 306 -308 299 -336 296 -21 -2 -28 -9 -30 -29 -3 -22 27 -54 191 -214
191 -185 195 -189 180 -212 -14 -21 -14 -25 2 -43 52 -57 153 60 190 220 15
67 15 251 -1 354 -5 38 -4 47 5 41 23 -13 184 -31 264 -29 130 4 240 40 338
113 76 55 143 167 169 280 20 85 15 259 -10 374 l-8 39 36 -7 c110 -20 312
-26 407 -11 79 12 181 54 208 84 35 42 23 75 -28 75 -19 0 -49 22 -108 79 -45
44 -134 132 -199 194 -65 64 -125 114 -135 114 -23 0 -43 -19 -43 -41 0 -9 88
-102 196 -207 l197 -191 -59 -17 c-89 -26 -296 -23 -442 5 -23 5 -44 10 -45
12 -16 22 -46 249 -33 249 2 0 53 -47 113 -105 112 -109 145 -126 159 -83 6
19 -13 42 -131 155 l-137 132 11 52 c14 66 56 143 86 159 27 14 38 43 22 59
-19 19 -53 12 -85 -19z m-247 -644 c28 -3 80 -11 117 -17 l67 -12 7 -41 c3
-23 8 -50 10 -61 3 -11 7 -60 11 -110 l6 -90 -69 65 c-102 97 -117 110 -127
110 -20 0 -47 -22 -47 -39 0 -17 121 -144 197 -207 24 -20 30 -32 27 -52 -6
-36 -29 -93 -53 -132 l-20 -33 -153 150 c-84 83 -204 200 -265 261 -62 60
-113 114 -113 119 0 9 84 55 134 73 16 6 54 13 85 17 31 3 57 6 58 7 3 3 54
-1 128 -8z m-16 -595 c94 -92 94 -84 1 -134 -102 -56 -235 -65 -450 -31 -67
11 -67 11 -80 81 -13 78 -25 253 -17 253 3 0 47 -40 98 -90 90 -89 113 -102
137 -78 26 26 8 52 -107 164 l-119 116 14 41 c8 23 26 61 40 84 l25 43 187
-184 c103 -101 225 -221 271 -265z"/>
<path d="M2418 2284 c-11 -23 -10 -29 10 -45 19 -15 28 -16 48 -7 14 7 24 20
24 33 0 49 -62 63 -82 19z"/>
<path d="M2252 1754 c-38 -26 -22 -74 24 -74 45 0 58 50 19 76 -18 12 -24 11
-43 -2z"/>
<path d="M1542 2313 c-59 -24 -88 -99 -58 -151 49 -89 188 -79 217 16 28 94
-66 174 -159 135z"/>
<path d="M3110 2092 c-31 -10 -70 -57 -76 -90 -12 -64 48 -132 116 -132 60 0
120 60 120 120 0 27 -34 76 -62 91 -24 13 -76 19 -98 11z"/>
<path d="M3257 1415 c-68 -23 -107 -77 -107 -145 0 -144 212 -201 289 -77 77
125 -43 271 -182 222z"/>
<path d="M2289 1355 c-54 -29 -60 -107 -12 -145 51 -40 132 -14 147 46 10 37
-11 82 -45 99 -35 18 -56 18 -90 0z"/>
</g>
</svg>
